Coordinates
version=1
nRows=26
nColumns=22
inDegrees=yes

Units are S.I. units (second, meters, Newtons, ...)
If the header above contains a line with 'inDegrees', this indicates whether rotational values are in degrees (yes) or radians (no).

endheader
time	pelvis_tilt	pelvis_list	pelvis_rotation	pelvis_tx	pelvis_ty	pelvis_tz	hip_flexion_r	hip_adduction_r	hip_rotation_r	knee_angle_r	ankle_angle_r	subtalar_angle_r	hip_flexion_l	hip_adduction_l	hip_rotation_l	knee_angle_l	ankle_angle_l	subtalar_angle_l	lumbar_extension	lumbar_bending	lumbar_rotation
      2.62000000	      4.58704165	      5.06720363	    -37.38633773	      0.13772377	      0.92579597	     -0.28497926	     16.81963481	    -10.24933672	     -4.49715450	    -69.12935389	      2.16913980	     -0.62334077	     11.56280636	      7.12976592	     -0.16421741	    -24.16413627	      9.76520443	      0.35816237	     -9.10141381	    -11.48756770	     -2.52550192
      2.63000000	      4.63591149	      4.71725247	    -37.55732976	      0.14388008	      0.92680155	     -0.28015708	     18.01814915	     -9.74445201	     -4.48091561	    -69.00333889	      2.80210639	     -0.72862375	     10.59994645	      6.87611796	     -0.25183350	    -23.91552947	     10.17902208	      0.04297260	     -9.51854738	    -11.19918407	     -3.15149204
      2.64000000	      4.64694336	      4.37428952	    -37.73810728	      0.14983988	      0.92768107	     -0.27525649	     19.19801374	     -9.14556190	     -4.40814140	    -68.60443726	      3.40345477	     -0.65108617	      9.69137448	      6.58418347	     -0.40691334	    -23.68784401	     10.59526620	     -0.18695288	     -9.89037751	    -10.90434572	     -3.76901729
      2.65000000	      4.64196082	      4.00329378	    -37.93312127	      0.15569495	      0.92855125	     -0.27021564	     20.28796387	     -8.45833830	     -4.30650996	    -67.90497458	      3.87757554	     -0.41724306	      8.73303348	      6.25486767	     -0.54393327	    -23.38152216	     10.99931685	     -0.59092491	    -10.24542309	    -10.58496098	     -4.34498456
      2.66000000	      4.59870058	      3.66659960	    -38.13968029	      0.16142497	      0.92923627	     -0.26510093	     21.36490188	     -7.73966415	     -4.17083469	    -66.95312888	      4.34557935	     -0.07242992	      7.84362958	      5.91668481	     -0.74568257	    -23.09656879	     11.41463473	     -0.89231468	    -10.52885191	    -10.27818934	     -4.91640853
      2.67000000	      4.51910130	      3.36842587	    -38.35077204	      0.16710857	      0.92973798	     -0.25990166	     22.41208503	     -7.02854630	     -4.04471737	    -65.74840025	      4.82768325	      0.28123366	      7.00733305	      5.57856847	     -1.00347134	    -22.80862423	     11.84328813	     -1.11060911	    -10.73196222	     -9.98426289	     -5.47505379
      2.68000000	      4.45020955	      3.06788744	    -38.57494525	      0.17276097	      0.93020282	     -0.25463092	     23.35308392	     -6.32551489	     -3.90534977	    -64.27923657	      5.14743183	      0.86105566	      6.12615927	      5.25888616	     -1.20803864	    -22.46526503	     12.24219567	     -1.46474370	    -10.93541449	     -9.69293867	     -6.02299566
      2.69000000	      4.34430996	      2.81836527	    -38.79957742	      0.17839346	      0.93044800	     -0.24930737	     24.26692526	     -5.67396148	     -3.79880979	    -62.58109769	      5.49165237	      1.33823383	      5.32220952	      4.95240569	     -1.46232877	    -22.14799309	     12.66217313	     -1.69873319	    -11.05614830	     -9.41896490	     -6.56849177
      2.70000000	      4.20761950	      2.60937095	    -39.02365222	      0.18402412	      0.93049992	     -0.24393414	     25.13326373	     -5.08394246	     -3.74268887	    -60.65547579	      5.83204096	      1.69704802	      4.58037024	      4.65729574	     -1.74817423	    -21.85415082	     13.10370960	     -1.84418695	    -11.10989187	     -9.15476458	     -7.11138209
      2.71000000	      4.09716794	      2.40708263	    -39.25737568	      0.18964496	      0.93051769	     -0.23850283	     25.87349368	     -4.56189178	     -3.71446784	    -58.49218041	      6.00587430	      2.16602834	      3.79161994	      4.39958277	     -1.97538939	    -21.51296511	     13.50553625	     -2.05197532	    -11.18147144	     -8.90978871	     -7.65755579
      2.72000000	      3.93482033	      2.26087977	    -39.48599978	      0.19529288	      0.93029311	     -0.23303646	     26.58737242	     -4.12795354	     -3.78539150	    -56.12161518	      6.19364392	      2.44301625	      3.10132162	      4.14851310	     -2.24950077	    -21.21009725	     13.94001060	     -2.15864194	    -11.15477477	     -8.66862499	     -8.17328172
      2.73000000	      3.78481063	      2.12467941	    -39.72594472	      0.20093227	      0.92999699	     -0.22751456	     27.18197520	     -3.76528403	     -3.91676939	    -53.53122921	      6.25169528	      2.69192932	      2.39835969	      3.92120122	     -2.50262244	    -20.89886250	     14.35828693	     -2.26611886	    -11.13101978	     -8.43730787	     -8.68431010
      2.74000000	      3.62364471	      2.02278464	    -39.96848659	      0.20654407	      0.92956329	     -0.22193821	     27.69659155	     -3.47990741	     -4.12784056	    -50.74334386	      6.22469002	      2.85752932	      1.72482168	      3.71340364	     -2.76317160	    -20.58353370	     14.76729870	     -2.34997553	    -11.07743126	     -8.22820235	     -9.16994272
      2.75000000	      3.50015336	      1.92188980	    -40.23040917	      0.21213921	      0.92909815	     -0.21627602	     28.05814996	     -3.26107198	     -4.39786635	    -47.75783675	      6.10366093	      2.96335035	      0.99743960	      3.53806451	     -3.00828326	    -20.23550968	     15.15123193	     -2.43904969	    -11.05892606	     -8.04418476	     -9.63067397
      2.76000000	      3.34714210	      1.85249650	    -40.49447520	      0.21770047	      0.92845980	     -0.21055028	     28.34997377	     -3.08638062	     -4.75600510	    -44.60270245	      5.89148138	      2.96476437	      0.33224356	      3.36227339	     -3.28824006	    -19.92239471	     15.55202021	     -2.49004454	    -10.99478195	     -7.86317252	    -10.06215925
      2.77000000	      3.16777276	      1.81971419	    -40.76427558	      0.22323423	      0.92764533	     -0.20474994	     28.57999471	     -2.94970182	     -5.19737459	    -41.30968013	      5.54911515	      2.92209021	     -0.27540325	      3.19227091	     -3.60358497	    -19.63637978	     15.94732840	     -2.52609450	    -10.88127562	     -7.69067535	    -10.45452560
      2.78000000	      3.04393425	      1.77378430	    -41.05288076	      0.22876274	      0.92681581	     -0.19880458	     28.63654715	     -2.84095835	     -5.68354405	    -37.89447843	      5.14964053	      2.83034812	     -0.97273925	      3.05341559	     -3.91981061	    -19.30202556	     16.32564018	     -2.56203744	    -10.82627639	     -7.54960174	    -10.81499900
      2.79000000	      2.98321623	      1.72274455	    -41.36286370	      0.23430884	      0.92595374	     -0.19270044	     28.53321639	     -2.75815259	     -6.19017105	    -34.41078869	      4.75732462	      2.68747133	     -1.76872936	      2.96287196	     -4.22319979	    -18.90579422	     16.66481595	     -2.58923964	    -10.82488129	     -7.45190695	    -11.13080285
      2.80000000	      2.91823676	      1.69613888	    -41.67407601	      0.23985413	      0.92491621	     -0.18646086	     28.37589426	     -2.68150628	     -6.74701979	    -30.93790386	      4.27137778	      2.55875010	     -2.53662012	      2.88249435	     -4.57262201	    -18.53903098	     17.01245797	     -2.60716010	    -10.79475440	     -7.37237754	    -11.42484298
      2.81000000	      2.88869884	      1.67583115	    -41.98963418	      0.24543194	      0.92376412	     -0.18006322	     28.13667911	     -2.61221875	     -7.31298729	    -27.54590072	      3.78264692	      2.44511440	     -3.34174856	      2.83253701	     -4.93415255	    -18.16801086	     17.35231642	     -2.61612061	    -10.77973615	     -7.32212945	    -11.69637762
      2.82000000	      2.89655222	      1.65679903	    -42.30669885	      0.25105686	      0.92250519	     -0.17349664	     27.83623761	     -2.54728999	     -7.87870996	    -24.31946693	      3.32671097	      2.34709421	     -4.19353284	      2.81240052	     -5.29199109	    -17.78500940	     17.67003639	     -2.61119231	    -10.78192153	     -7.29968050	    -11.94178317
      2.83000000	      2.93307807	      1.63880470	    -42.61353931	      0.25672509	      0.92112892	     -0.16678469	     27.50868051	     -2.48523481	     -8.41801107	    -21.34544668	      2.93739659	      2.27248933	     -5.06409153	      2.81205307	     -5.63812241	    -17.42590552	     17.97957380	     -2.58858318	    -10.79669730	     -7.29506504	    -12.17684732
      2.84000000	      2.98348291	      1.62109461	    -42.90396641	      0.26243777	      0.91963851	     -0.15994216	     27.18648722	     -2.42157966	     -8.91421584	    -18.69859918	      2.64109919	      2.21796657	     -5.93103943	      2.81969248	     -5.95621380	    -17.10841966	     18.28018195	     -2.54545802	    -10.81068890	     -7.29506692	    -12.41060634
      2.85000000	      3.01709383	      1.60814867	    -43.16628789	      0.26818856	      0.91802185	     -0.15300604	     26.91596016	     -2.35234916	     -9.36045728	    -16.44399968	      2.39903989	      2.17243773	     -6.74304768	      2.81037894	     -6.24237099	    -16.87206729	     18.59247768	     -2.48850540	    -10.79851814	     -7.27640632	    -12.64752301
      2.86000000	      3.05543644	      1.57860994	    -43.38892199	      0.27400444	      0.91636849	     -0.14599260	     26.65927001	     -2.28682515	     -9.72714991	    -14.60759906	      2.33019579	      2.12358845	     -7.53157381	      2.78552870	     -6.44182821	    -16.71856226	     18.88045012	     -2.39953940	    -10.79672202	     -7.23384945	    -12.89495370
      2.87000000	      3.06895564	      1.53621999	    -43.56689448	      0.27986340	      0.91468119	     -0.13892314	     26.45115932	     -2.21968929	    -10.04154387	    -13.21887888	      2.35941652	      2.05046664	     -8.24912409	      2.71764852	     -6.57543308	    -16.68164311	     19.15711552	     -2.28264610	    -10.78334459	     -7.14924754	    -13.15168876
